<mxfile host="app.diagrams.net" modified="2023-08-22T02:01:30.406Z" agent="Mozilla/5.0 (Windows NT 10.0; Win64; x64) AppleWebKit/537.36 (KHTML, like Gecko) Chrome/116.0.0.0 Safari/537.36" version="21.6.8" etag="6UD0c1oCjPi9gJxjEfm9" type="github">
  <diagram name="Page-1" id="BOHobc1ZL4onX3GKTS0B">
    <mxGraphModel>
      <root>
        <mxCell id="0" />
        <mxCell id="1" parent="0" />
      </root>
    </mxGraphModel>
  </diagram>
</mxfile>
